<svg xmlns="http://www.w3.org/2000/svg" width="25" height="48" viewBox="0 0 25 48">
  <path fill="#FFF" fill-rule="evenodd" d="M21.6798379,32.9085174 C21.6798379,32.2018892 21.5869648,31.5793928 21.4012158,31.0410095 C21.2154668,30.5026261 20.9115185,30.0147235 20.4893617,29.5772871 C20.0672049,29.1398506 19.5226308,28.7360691 18.8556231,28.3659306 C18.1886154,27.9957921 17.373865,27.6340712 16.4113475,27.2807571 C14.7564929,26.6582514 13.2536373,26.0063126 11.9027356,25.3249211 C10.5518338,24.6435297 9.39514159,23.8569971 8.43262411,22.9652997 C7.47010664,22.0736023 6.72290033,21.0305002 6.19098278,19.8359621 C5.65906522,18.6414241 5.39311044,17.2197769 5.39311044,15.5709779 C5.39311044,14.1408972 5.62951469,12.8370196 6.10233029,11.659306 C6.5751459,10.4815924 7.25058663,9.45531457 8.12867275,8.58044164 C9.00675887,7.70556871 10.0579135,6.99474511 11.2821682,6.44794953 C12.5064229,5.90115394 13.8784119,5.55205123 15.3981763,5.40063091 L15.3981763,0 L19.4508612,0 L19.4508612,5.47634069 C20.9030805,5.67823445 22.22019,6.09042801 23.402229,6.71293375 C24.584268,7.3354395 25.5889861,8.1430024 26.4164134,9.13564669 C27.2438407,10.128291 27.8812879,11.3017808 28.3287741,12.6561514 C28.7762603,14.010522 29,15.5289085 29,17.2113565 L21.6798379,17.2113565 C21.6798379,15.1924189 21.2619089,13.6824445 20.4260385,12.681388 C19.5901681,11.6803315 18.4714694,11.1798107 17.0699088,11.1798107 C16.3100266,11.1798107 15.6556934,11.2933743 15.1068896,11.5205047 C14.5580857,11.7476352 14.1063848,12.0588834 13.751773,12.4542587 C13.3971613,12.8496339 13.1354281,13.3165062 12.9665653,13.8548896 C12.7977026,14.3932729 12.7132725,14.9737088 12.7132725,15.5962145 C12.7132725,16.2187203 12.7977026,16.7823319 12.9665653,17.2870662 C13.1354281,17.7918006 13.4267119,18.2586729 13.8404255,18.6876972 C14.2541392,19.1167214 14.8029348,19.5205028 15.4868288,19.8990536 C16.1707228,20.2776044 17.0192452,20.6687677 18.0324215,21.0725552 C19.6703898,21.7287099 21.1605809,22.401679 22.5030395,23.0914826 C23.8454981,23.7812863 24.9979688,24.576231 25.9604863,25.4763407 C26.9230038,26.3764503 27.6702101,27.4237585 28.2021277,28.6182965 C28.7340452,29.8128346 29,31.2260697 29,32.8580442 C29,34.3385984 28.7593742,35.6677123 28.2781155,36.8454259 C27.7968568,38.0231394 27.1171945,39.0410052 26.2391084,39.8990536 C25.3610223,40.7571021 24.3014246,41.4468954 23.0602837,41.9684543 C21.8191427,42.4900131 20.4387107,42.8264977 18.9189463,42.977918 L18.9189463,48 L14.8915907,48 L14.8915907,43.0031546 C13.4900301,42.8517343 12.1349272,42.5236618 10.8262411,42.0189274 C9.51755509,41.5141931 8.35664134,40.7865452 7.34346505,39.8359621 C6.33028875,38.8853791 5.51975988,37.6866529 4.9118541,36.2397476 C4.30394833,34.7928424 4,33.059947 4,31.0410095 L11.3201621,31.0410095 C11.3201621,32.2355475 11.4763578,33.232383 11.7887538,34.0315457 C12.1011498,34.8307085 12.5190788,35.4700291 13.0425532,35.9495268 C13.5660276,36.4290245 14.1612598,36.765509 14.8282675,36.9589905 C15.4952752,37.1524721 16.1749374,37.2492114 16.8672746,37.2492114 C17.6609293,37.2492114 18.3574776,37.1398539 18.9569402,36.9211356 C19.5564029,36.7024174 20.0587619,36.3995813 20.4640324,36.0126183 C20.8693029,35.6256553 21.1732513,35.1671951 21.3758865,34.637224 C21.5785218,34.1072529 21.6798379,33.5310231 21.6798379,32.9085174 Z" transform="translate(-4)"/>
</svg>
