<svg xmlns="http://www.w3.org/2000/svg" width="43" height="48" viewBox="0 0 43 48">
  <g fill="#FFF" fill-rule="evenodd">
    <path fill-rule="nonzero" d="M15.6011423,3 L28.3988577,3 L30.9950115,48 L34,48 L31.3389564,1.87524343 C31.2781446,0.821173587 30.4712838,0 29.4963977,0 L14.5036023,0 C13.5287162,0 12.7218554,0.821173587 12.6610436,1.87524343 L10,48 L13.0049885,48 L15.6011423,3 Z M30.9950115,48 L34,48 L31.3389564,1.87524343 C31.2781446,0.821173587 30.4712838,0 29.4963977,0 L14.5036023,0 C13.5287162,0 12.7218554,0.821173587 12.6610436,1.87524343 L10,48 L13.0049885,48 L15.6011423,3 L28.3988577,3 L30.9950115,48 Z"/>
    <polygon fill-rule="nonzero" points="4.5 19.5 38.5 19.5 38.5 23 41.5 23 41.5 16.5 1.5 16.5 1.5 23 4.5 23"/>
    <polygon fill-rule="nonzero" points="4.5 8.5 38.5 8.5 38.5 12 41.5 12 41.5 5.5 1.5 5.5 1.5 12 4.5 12"/>
    <polygon points="21 24 24 24 23.5 46.134 21 47" transform="rotate(-60 22.5 35.5)"/>
    <polygon points="20 24 23 24 23 47 20.5 46.134" transform="rotate(60 21.5 35.5)"/>
    <polygon points="12 41 32 41 33 44 11 44"/>
    <polygon points="12.909 27 31.091 27 32 30 12 30"/>
    <g transform="translate(37 20)">
      <rect width="6" height="2" y="3" rx="1"/>
      <rect width="6" height="2" rx="1"/>
    </g>
    <g transform="translate(0 20)">
      <rect width="6" height="2" y="3" rx="1"/>
      <rect width="6" height="2" rx="1"/>
    </g>
    <g transform="translate(37 9)">
      <rect width="6" height="2" y="3" rx="1"/>
      <rect width="6" height="2" rx="1"/>
    </g>
    <g transform="translate(0 9)">
      <rect width="6" height="2" y="3" rx="1"/>
      <rect width="6" height="2" rx="1"/>
    </g>
  </g>
</svg>
