<svg xmlns="http://www.w3.org/2000/svg" width="36" height="46" viewBox="0 0 36 46">
  <g fill="#FFF" fill-rule="evenodd" transform="translate(-1 -2)">
    <path d="M18.0100734 28.2014675L19 48 10 48 10.4937372 38.1252551C12.2383079 36.3463623 14.0058255 34.2213062 15.6743903 31.8383487 16.5268795 30.620868 17.3072741 29.4021401 18.0100734 28.2014675zM10.6212409 20.8630591C9.2537683 22.1878718 7.85066443 23.8338725 6.53625638 25.7110417 2.41814864 31.5923091.730123588 37.5156134 2.76594691 38.9411123 4.80177022 40.3666111 9.79051704 36.754497 13.9086248 30.8732296 15.2230328 28.9960604 16.2898777 27.1146087 17.0670912 25.3764921 15.6457854 26.0664712 13.9027803 25.9860389 12.5167463 25.0155275 11.1307124 24.0450161 10.4589879 22.4346364 10.6212409 20.8630591z"/>
    <circle cx="15.078" cy="21.378" r="3" transform="rotate(35 15.078 21.378)"/>
    <path d="M5.19124502,20.7704739 C4.83095838,18.9009008 4.62571016,16.7477887 4.62571016,14.4561882 C4.62571016,7.27648644 6.64042879,1.45618819 9.12571016,1.45618819 C11.6109915,1.45618819 13.6257102,7.27648644 13.6257102,14.4561882 C13.6257102,16.7477887 13.4204619,18.9009008 13.0601753,20.7704739 C12.2916655,19.3900486 10.8177452,18.4561882 9.12571016,18.4561882 C7.43367511,18.4561882 5.95975486,19.3900486 5.19124502,20.7704739 Z" transform="rotate(-30 9.126 11.113)"/>
    <path d="M22.7574052,13.7514251 C22.3971186,15.6209982 22.1918704,17.7741103 22.1918704,20.0657108 C22.1918704,27.2454125 24.206589,33.0657108 26.6918704,33.0657108 C29.1771517,33.0657108 31.1918704,27.2454125 31.1918704,20.0657108 C31.1918704,17.7741103 30.9866221,15.6209982 30.6263355,13.7514251 C29.8578257,15.1318504 28.3839054,16.0657108 26.6918704,16.0657108 C24.9998353,16.0657108 23.5259151,15.1318504 22.7574052,13.7514251 Z" transform="rotate(-80 26.692 23.409)"/>
  </g>
</svg>
